<svg width="170px" height="64px" xmlns="http://www.w3.org/2000/svg" viewBox="0 0 190 45">
  <g fill="#fff" transform="translate(.506 .784)">
    <path d="M187.983839,42.1745027 L176.822077,27.5511826 C181.343297,25.9263693 184.027771,21.5464377 184.098415,15.5416928 C184.098415,10.8791849 183.038754,7.27633798 181.131365,4.73315189 C179.082687,2.04867768 175.903705,0.565152464 171.735705,0.423864348 L171.735705,0.423864348 L171.735705,0.423864348 L145.385471,0.423864348 L144.396455,0.423864348 L144.396455,1.41288116 L144.396455,42.8102992 L144.396455,43.799316 L145.385471,43.799316 L155.27564,43.799316 L156.264656,43.799316 L156.264656,42.8102992 L156.264656,11.0911171 L166.437401,11.0911171 C169.192519,11.3030493 170.887976,11.3736933 171.029265,15.824269 C171.099909,17.7316586 170.676044,19.0738957 169.828316,20.0629125 C168.274146,21.6877258 165.236452,21.899658 162.128113,21.899658 C161.492317,21.899658 160.927164,21.899658 160.291368,21.899658 C159.938147,21.899658 159.655571,21.899658 159.302351,21.899658 L157.324317,21.899658 L158.454622,23.4538273 L173.077942,43.3754516 L173.360518,43.799316 L173.855027,43.799316 L187.206754,43.799316 L189.184787,43.799316 L187.983839,42.1745027 Z"/>
    <polygon points="32.92 .141 31.931 .141 31.931 1.06 31.931 23.171 12.433 .495 12.151 .212 11.656 .212 1.13 .212 .141 .212 .141 1.13 .141 42.74 .141 43.729 1.13 43.729 10.879 43.729 11.868 43.729 11.868 42.74 11.868 19.639 32.143 43.375 32.426 43.729 32.92 43.729 42.81 43.729 43.799 43.729 43.799 42.74 43.87 1.13 43.87 .141 42.881 .141"/>
    <path d="M129.631847 27.5511826C134.153066 25.9263693 136.83754 21.5464377 136.908185 15.5416928 136.908185 10.8791849 135.848524 7.27633798 133.941134 4.73315189 131.892456 2.04867768 128.713474.565152464 124.545474.423864348L124.545474.423864348 124.545474.423864348 98.1952407.423864348 97.2062239.423864348 97.2062239 1.41288116 97.2062239 42.8102992 97.2062239 43.799316 98.1952407 43.799316 108.085409 43.799316 109.074426 43.799316 109.074426 42.8102992 109.074426 11.0911171 119.24717 11.0911171C122.002288 11.3030493 123.697746 11.3736933 123.839034 15.824269 123.909678 17.7316586 123.485813 19.0738957 122.638085 20.0629125 121.083916 21.6877258 118.046221 21.899658 114.937882 21.899658 114.302086 21.899658 113.736933 21.899658 113.101137 21.899658 112.747917 21.899658 112.46534 21.899658 112.11212 21.899658L110.134087 21.899658 111.264391 23.4538273 125.887711 43.3754516 126.170288 43.799316 126.664796 43.799316 139.945879 43.799316 141.923913 43.799316 140.722964 42.2451467 129.631847 27.5511826zM87.1041236 6.35796523C82.724192 2.26060986 76.7900911 0 70.5027699 0 64.2154488 0 58.2813479 2.26060986 53.9014163 6.35796523 49.4508406 10.5259647 46.9782986 16.1774893 46.9782986 22.1822342 46.9782986 28.1869792 49.4508406 33.7678598 53.9014163 37.7945711 58.2813479 41.7506383 64.1448047 43.9406041 70.5027699 43.9406041 76.8607352 43.9406041 82.724192 41.7506383 87.1041236 37.7945711 91.5546992 33.7678598 94.0272413 28.1869792 94.0272413 22.1822342 94.0272413 16.1774893 91.5546992 10.5259647 87.1041236 6.35796523M70.4321259 33.3439954C64.2860928 33.3439954 59.2703647 28.2576232 59.2703647 21.9703021 59.2703647 15.6829809 64.2860928 10.5966087 70.4321259 10.5966087 76.5781589 10.5966087 81.5938871 15.6829809 81.5938871 21.9703021 81.6645311 28.2576232 76.648803 33.3439954 70.4321259 33.3439954"/>
  </g>
</svg>
