<?xml version="1.0" standalone="no"?>
<!DOCTYPE svg PUBLIC "-//W3C//DTD SVG 20010904//EN"
 "http://www.w3.org/TR/2001/REC-SVG-20010904/DTD/svg10.dtd">
<svg version="1.0" xmlns="http://www.w3.org/2000/svg"
 width="1281.000000pt" height="143.000000pt" viewBox="0 0 1281.000000 143.000000"
 preserveAspectRatio="xMidYMid meet">
<metadata>
Created by potrace 1.16, written by Peter Selinger 2001-2019
</metadata>
<g transform="translate(0.000000,143.000000) scale(0.100000,-0.100000)"
fill="#ffffff" stroke="none" fill-opacity="0.1">
<path d="M40 730 l0 -700 405 0 405 0 0 700 0 700 -405 0 -405 0 0 -700z"/>
<path d="M1047 1396 c15 -18 284 -333 597 -700 l570 -666 393 0 393 0 0 700 0
700 -991 0 -990 0 28 -34z"/>
<path d="M3203 1348 c25 -354 211 -713 491 -948 303 -254 669 -383 1091 -382
325 0 592 66 848 209 426 238 704 659 743 1121 l7 82 -430 0 -430 0 -7 -54
c-8 -71 -54 -199 -97 -273 -46 -78 -189 -219 -269 -266 -36 -21 -101 -50 -145
-64 -72 -24 -95 -27 -220 -27 -125 0 -149 3 -218 26 -43 14 -110 45 -150 69
-86 50 -218 180 -266 263 -43 73 -89 201 -97 272 l-7 54 -425 0 -425 0 6 -82z"/>
<path d="M6580 725 l0 -705 410 0 410 0 0 705 0 705 -410 0 -410 0 0 -705z"/>
<path d="M7530 1388 c17 -24 250 -341 518 -705 l486 -663 538 0 c296 0 538 2
538 5 0 3 -174 236 -387 518 -213 281 -398 527 -411 544 l-24 33 46 20 c102
43 209 133 277 233 l40 57 -826 0 -827 0 32 -42z"/>
<path d="M9760 725 l0 -705 410 0 410 0 0 705 0 705 -410 0 -410 0 0 -705z"/>
<path d="M10688 1418 c11 -15 517 -703 816 -1110 l211 -288 537 0 c296 0 538
4 538 8 0 13 -28 51 -434 581 -204 267 -375 491 -379 498 -6 10 5 19 39 34
101 43 210 137 282 242 l33 47 -827 0 c-660 0 -824 -3 -816 -12z"/>
</g>
</svg>
